# xmcd
#
# Track frame offsets: 
#        182
#        19517
#        36605
#        65232
#        81422
#        95022
#        108772
#        122917
#        135842
#        159137
#        172895
#        184597
#        217435
#        229292
#
# Disc length: 3381 seconds
#
# Revision: 4
# Processed by: cddbd v1.5.1PL2 Copyright (c) Steve Scherf et al.
# Submitted via: ExactAudioCopy v0.95b3
#
DISCID=c10d330e
DTITLE=Various Artist - Home of the Blues
DYEAR=1999
DGENRE=Blues
TTITLE0=Jonny Lang - Good Morning, Little School Girl
TTITLE1=The Allman Brothers - Trouble No More
TTITLE2=Luther Allison - Luther's Blues
TTITLE3=John Mayall's Bluesbreakers with Eric Clapton - All Your Love
TTITLE4=Buddy Guy - My Time After Awhile
TTITLE5=Slim Harpo - I'm A King Bee
TTITLE6=Howlin' Wolf - Smokestack Lightnin'
TTITLE7=Muddy Waters - (I'm Your) Hoochie Coochie Man
TTITLE8=John Lee Hooker - It Serves You Right to Suffer
TTITLE9=Koko Taylor - Wang Dang Doodle
TTITLE10=Etta James - I'd Rather Go Blind
TTITLE11=Robert Cray - I Was Warned
TTITLE12=Bobby "Blue" Bland - Turn On Your Love Light
TTITLE13=B.B. King - The Thrill Is Gone
EXTD=YEAR: 1999 ID3G:   0
EXTT0=
EXTT1=
EXTT2=
EXTT3=
EXTT4=
EXTT5=
EXTT6=
EXTT7=
EXTT8=
EXTT9=
EXTT10=
EXTT11=
EXTT12=
EXTT13=
PLAYORDER=
